<?xml version="1.0" ?><svg style="enable-background:new 0 0 512 512;" version="1.1" viewBox="0 0 512 512" xml:space="preserve" xmlns="http://www.w3.org/2000/svg" xmlns:xlink="http://www.w3.org/1999/xlink"><style type="text/css">
	.st0{fill:#333333;}
	.st1{fill:none;stroke:#333333;stroke-width:32;stroke-linecap:round;stroke-linejoin:round;stroke-miterlimit:10;}
</style><g id="Layer_1"/><g id="Layer_2"><g><path class="st0" d="M256,46.66C140.38,46.66,46.66,140.38,46.66,256S140.38,465.34,256,465.34S465.34,371.62,465.34,256    S371.62,46.66,256,46.66z M256,110.88c17.07,0,30.91,13.84,30.91,30.91c0,17.07-13.84,30.91-30.91,30.91s-30.91-13.84-30.91-30.91    C225.09,124.72,238.93,110.88,256,110.88z M287.03,370.09c0,17.14-13.89,31.03-31.03,31.03l0,0c-17.14,0-31.03-13.89-31.03-31.03    V257.61c0-17.14,13.89-31.03,31.03-31.03l0,0c17.14,0,31.03,13.89,31.03,31.03V370.09z"/></g></g></svg>