<?xml version="1.0" ?><svg id="Icons" style="enable-background:new 0 0 32 32;" version="1.1" viewBox="0 0 32 32" xml:space="preserve" xmlns="http://www.w3.org/2000/svg" xmlns:xlink="http://www.w3.org/1999/xlink"><path d="M29.7,14.3c-0.3-0.4-0.9-0.6-1.5-0.6h-6.8c-0.7,0-1.3-0.6-1.3-1.3V3.9C20.1,2.8,19,2,18,2c-1,0-1.8,0.8-1.8,1.9  c0,2.3-0.7,4.6-2.1,6.5L11,13.9v11.7c1.7,1.5,4.3,2.4,6.8,2.4h8.5c0.9,0,1.6-0.6,1.8-1.5l2-11.1C30,14.9,30,14.5,29.7,14.3z"/><path d="M6.8,15H4.2c-0.7,0-1.3,0.6-1.3,1.3v10.4c0,0.7,0.6,1.3,1.3,1.3h2.6c0.7,0,1.3-0.6,1.3-1.3V16.3C8.1,15.6,7.5,15,6.8,15z"/></svg>